<?xml version="1.0" encoding="UTF-8"?>
<svg width="600px" height="600px" viewBox="0 0 600 600" version="1.1" xmlns="http://www.w3.org/2000/svg" xmlns:xlink="http://www.w3.org/1999/xlink">
    <title>assets/icon</title>
    <g id="/assets/icon" stroke="none" stroke-width="1" fill="none" fill-rule="evenodd">
        <g id="icon" transform="translate(7, 56)" fill="#000000" fill-rule="nonzero">
            <path d="M268.133619,275.630606 L126.17536,473.795397 C118.911699,483.931455 106.675599,489.267504 94.2932509,487.732476 C80.2046737,485.978158 60.8024117,480.69084 40.7907821,466.315182 C20.7791525,451.939524 9.56679007,435.224776 3.39999071,422.408511 C-2.03281547,411.161696 -0.892516988,397.847652 6.37370424,387.687642 L148.331963,189.522851 C155.088524,180.086311 163.951404,172.352981 174.217896,166.936012 L202.151303,152.219237 C207.757484,149.271009 212.778673,145.323794 216.971121,140.572517 C230.523455,125.197873 266.914884,84.9216649 331.434717,19.7926244 L332.555954,14.6271337 C332.822451,13.4434179 333.723622,12.5050516 334.895925,12.1905815 L338.454631,11.2890572 C339.999958,10.8919667 341.03763,9.44387977 340.916476,7.85351856 L340.550855,3.46772459 C340.469784,2.59905693 340.750725,1.73542486 341.327404,1.080564 C341.904083,0.42570314 342.725433,0.0376036828 343.597693,0.00782045188 C347.88764,-0.114007159 356.223788,1.12863447 367.996769,9.58347063 C379.769749,18.0383068 383.596577,25.5672531 384.864062,29.6606608 C385.115722,30.4982938 385.009716,31.4026646 384.571166,32.1594556 C384.132616,32.9162466 383.400554,33.4580996 382.548465,33.6566065 L378.282893,34.7286894 C376.725425,35.1079345 375.679084,36.5681183 375.821048,38.164228 L376.113544,41.8190564 C376.213303,43.0286374 375.618175,44.190115 374.577938,44.8160156 L370.044244,47.544954 C329.119121,129.632398 302.67257,177.072069 292.45957,194.858901 C289.315811,200.361838 287.193559,206.387755 286.195272,212.645732 L281.198458,243.857965 C279.368383,255.326107 274.895656,266.211762 268.133619,275.654972 L268.133619,275.630606 Z M578.642935,387.663277 L436.684676,189.498486 C429.928116,180.061945 421.065235,172.328615 410.798744,166.911647 L382.865336,152.170506 C377.258187,149.221124 372.236095,145.274322 368.045518,140.523786 C363.322523,135.170723 358.553026,129.858839 353.737569,124.588735 C353.26219,124.091421 352.578973,123.849047 351.896327,123.935547 C351.213682,124.022047 350.612572,124.427161 350.276361,125.027314 C336.593104,151.468739 322.412636,177.650079 307.742508,203.557392 C305.645229,207.21007 304.232712,211.214824 303.574434,215.37467 C302.160802,224.277335 302.160802,233.347176 303.574434,242.249841 L303.818181,243.809234 C305.646284,255.285395 310.131229,266.176784 316.883021,275.606241 L458.84128,473.771032 C466.056191,483.833993 478.097293,489.243138 490.382143,487.756842 C509.858171,485.271889 528.384539,477.885929 544.225857,466.290817 C560.177914,455.030436 573.03002,439.928822 581.592274,422.384146 C587.035878,411.139322 585.895083,397.819489 578.61856,387.663277 L578.642935,387.663277 Z M202.468174,33.6078754 L206.733747,34.6799584 C208.285086,35.0682419 209.327022,36.5222792 209.195592,38.115497 L208.903095,41.7703253 C208.797406,42.9810733 209.394051,44.1455132 210.438701,44.7672845 L214.972396,47.496223 C222.552928,62.6759433 229.572842,76.5886564 236.154011,89.4292865 C236.787753,90.6719281 238.372109,90.8912178 239.298347,89.8922314 C249.950092,78.4648016 262.795559,64.9175713 277.932248,49.2505406 C279.197232,47.9777859 279.229528,45.9331335 278.005373,44.6210914 C270.327342,36.7753933 262.28369,28.5642123 253.581922,19.7682589 L252.460686,14.6027682 C252.206746,13.4173375 251.298219,12.4807717 250.120715,12.1905815 L246.562008,11.2890572 C245.016682,10.8919667 243.979009,9.44387977 244.100163,7.85351856 L244.465784,3.46772459 C244.546659,2.60715918 244.272211,1.75093405 243.70608,1.09759902 C243.13995,0.444263995 242.331317,0.0505735465 241.467696,0.00782045188 C237.202123,-0.114007159 228.841601,1.10426895 217.044245,9.58347063 C205.271265,18.0383068 201.444437,25.5672531 200.176952,29.6606608 C199.925292,30.4982938 200.031298,31.4026646 200.469848,32.1594556 C200.908398,32.9162466 201.64046,33.4580996 202.492549,33.6566065 L202.468174,33.6078754 Z" id="Shape"></path>
        </g>
    </g>
</svg>